<?xml version="1.0" encoding="utf-8"?>
<!-- Generator: Adobe Illustrator 16.0.0, SVG Export Plug-In . SVG Version: 6.00 Build 0)  -->
<!DOCTYPE svg PUBLIC "-//W3C//DTD SVG 1.1//EN" "http://www.w3.org/Graphics/SVG/1.1/DTD/svg11.dtd">
<svg version="1.1" id="Calque_1" xmlns="http://www.w3.org/2000/svg" xmlns:xlink="http://www.w3.org/1999/xlink" x="0px" y="0px"
	 width="146.814px" height="59.459px" viewBox="0 0 146.814 59.459" enable-background="new 0 0 146.814 59.459"
	 xml:space="preserve">
<g>
	<defs>
		<rect id="SVGID_1_" x="9.921" y="9.921" width="126.972" height="39.617"/>
	</defs>
	<clipPath id="SVGID_2_">
		<use xlink:href="#SVGID_1_"  overflow="visible"/>
	</clipPath>
	<path clip-path="url(#SVGID_2_)" fill="#FAB900" d="M19.032,46.188c-2.204-1.33,0.774-10.041,4.695-17.562
		c2.13-4.086,4.462-7.733,6.567-10.269c1.554-1.874,3.667-3.95,4.915-3.199l-0.311,0.595c-0.523-0.315-1.89,0.319-4.155,3.049
		c-2.074,2.499-4.377,6.102-6.484,10.145c-4.584,8.792-6.27,15.828-4.917,16.646L19.032,46.188z"/>
	<path clip-path="url(#SVGID_2_)" fill="#0071BA" d="M43.35,24.906c0.074,0.112,0.126,0.234,0.154,0.366l-0.643,0.186
		c-0.323-1.524-7.305-1.303-16.813,1.446c-9.51,2.747-15.78,6.358-15.46,7.879l-0.643,0.186c-0.521-2.479,7.843-6.313,15.977-8.664
		C33.621,24.08,42.032,22.921,43.35,24.906"/>
</g>
<g>
	<defs>
		<rect id="SVGID_3_" width="146.814" height="59.459"/>
	</defs>
	<clipPath id="SVGID_4_">
		<use xlink:href="#SVGID_3_"  overflow="visible"/>
	</clipPath>
	<path clip-path="url(#SVGID_4_)" fill="#04BAEE" d="M14.151,18.687c0.058-0.127,0.138-0.24,0.238-0.337l0.491,0.458
		c-1.153,1.127,2.629,7.093,9.899,13.865c7.27,6.771,13.621,10.238,14.775,9.116l0.491,0.458c-1.878,1.828-9.501-3.342-15.719-9.134
		C18.439,27.631,13.11,20.937,14.151,18.687"/>
	<path clip-path="url(#SVGID_4_)" fill="#0071BA" d="M48.738,29.739c0-2.075,0.178-4.017,0.537-5.826
		c0.357-1.807,0.899-3.588,1.628-5.341c0.728-1.752,1.63-3.508,2.702-5.269c0.647-1.073,1.219-1.82,1.629-2.319
		c0.424-0.517,0.875-1.063,1.493-1.063c0.673,0,1.01,0.186,1.01,0.557c0,0.124-0.317,0.87-0.948,2.238
		c-0.633,1.368-1.227,2.801-1.784,4.299c-0.558,1.5-1.074,3.369-1.546,5.61c-0.476,2.24-0.712,4.612-0.712,7.114
		c0,2.474,0.233,4.82,0.701,7.034c0.467,2.212,1.129,4.13,1.727,5.753c0.599,1.623,1.066,3.077,1.665,4.362
		c0.598,1.284,0.897,1.983,0.897,2.093c0,0.371-0.337,0.557-1.01,0.557c-0.633,0-1.066-0.633-1.493-1.113
		c-0.426-0.481-0.969-1.25-1.629-2.311c-1.085-1.814-1.983-3.564-2.691-5.248c-0.709-1.684-1.247-3.434-1.618-5.25
		C48.924,33.803,48.738,31.842,48.738,29.739"/>
	<path clip-path="url(#SVGID_4_)" fill="#1D1D1B" d="M64.454,40.279L63.53,43.14h1.847L64.454,40.279z M66.647,44.961h-0.674
		l-0.427-1.24h-2.194l-0.419,1.24h-0.675l1.745-5.162h0.899L66.647,44.961z"/>
	<path clip-path="url(#SVGID_4_)" fill="#1D1D1B" d="M67.484,41.186h0.652v3.775h-0.652V41.186z M67.484,39.643h0.652v0.939h-0.652
		V39.643z"/>
	<polygon clip-path="url(#SVGID_4_)" fill="#1D1D1B" points="68.896,44.962 70.135,43.062 68.918,41.186 69.593,41.186 
		70.491,42.575 71.393,41.186 72.066,41.186 70.841,43.062 72.089,44.962 71.408,44.962 70.491,43.559 69.585,44.962 	"/>
	<path clip-path="url(#SVGID_4_)" fill="#FAB900" d="M74.301,40.395c0,0-0.17,0.072-0.17,0.149v2.146v0.914v1.182
		c0,0.076,0.174,0.148,0.174,0.148s0.171-0.071,0.171-0.148v-1.182V42.69v-2.146C74.476,40.469,74.301,40.395,74.301,40.395"/>
	<path clip-path="url(#SVGID_4_)" fill="#FAB900" d="M74.277,40.452l0.023-0.056L74.277,40.452z M74.191,44.788
		c0.002,0,0.006,0.006,0.013,0.012c0.01,0.013,0.026,0.027,0.046,0.037c0.02,0.013,0.039,0.023,0.055,0.031
		c0.01-0.007,0.022-0.013,0.037-0.021c0.033-0.02,0.066-0.049,0.071-0.059l0.001-0.002v-1.182v-0.916v-2.143
		c-0.001,0-0.001,0-0.001,0c-0.002-0.004-0.005-0.008-0.011-0.015c-0.01-0.013-0.028-0.026-0.047-0.038
		c-0.021-0.012-0.039-0.023-0.053-0.029c-0.012,0.006-0.025,0.012-0.039,0.021c-0.033,0.018-0.066,0.047-0.072,0.059
		c0,0.002,0,0.002,0,0.002v2.143v0.916v1.18V44.788z M74.281,44.99c-0.004,0-0.049-0.019-0.098-0.049
		c-0.045-0.034-0.107-0.069-0.113-0.155v-1.182v-0.916v-2.143c0.006-0.086,0.068-0.123,0.111-0.156
		c0.049-0.031,0.094-0.049,0.096-0.049l0.023-0.012l0.025,0.012c0.001,0,0.047,0.018,0.094,0.049
		c0.047,0.033,0.109,0.07,0.115,0.156v2.143v0.916v1.182c-0.006,0.086-0.068,0.121-0.114,0.155c-0.047,0.03-0.092,0.049-0.094,0.049
		L74.305,45L74.281,44.99z"/>
	<path clip-path="url(#SVGID_4_)" fill="#FAB900" d="M72.754,42.253c0,0-0.022,0.185,0.044,0.224l1.022,0.59
		c0.412,0.238,0.793,0.457,0.793,0.457l1.022,0.591c0.067,0.039,0.216-0.074,0.216-0.074s0.023-0.185-0.044-0.224l-1.022-0.59
		c0,0-0.381-0.219-0.793-0.459l-1.023-0.588C72.904,42.141,72.754,42.253,72.754,42.253"/>
	<path clip-path="url(#SVGID_4_)" fill="#FAB900" d="M75.669,44.063c0.015,0,0.058-0.016,0.089-0.034
		c0.014-0.009,0.025-0.017,0.034-0.022c0.001-0.009,0.001-0.021,0.001-0.037c0.002-0.041-0.01-0.094-0.015-0.1h-0.002l-1.022-0.59
		c0,0-0.38-0.219-0.793-0.458l-1.021-0.59h-0.003c-0.014-0.001-0.058,0.014-0.089,0.034c-0.014,0.008-0.027,0.016-0.036,0.021
		c0,0.01-0.001,0.021-0.001,0.036c-0.002,0.042,0.01,0.095,0.017,0.101v-0.002l1.023,0.592c0.412,0.238,0.791,0.457,0.793,0.457
		l1.021,0.592H75.669z M75.605,44.167l-1.021-0.59c0,0-0.383-0.22-0.794-0.458l-1.022-0.59c-0.044-0.025-0.057-0.068-0.069-0.104
		c-0.008-0.035-0.01-0.072-0.01-0.103c0-0.044,0.004-0.076,0.004-0.078l0.003-0.024l0.022-0.016c0.006-0.001,0.107-0.09,0.219-0.096
		c0.02,0,0.042,0.004,0.064,0.018l1.022,0.59c0.412,0.236,0.793,0.457,0.791,0.457l1.023,0.59c0.043,0.026,0.059,0.068,0.068,0.103
		c0.008,0.037,0.011,0.073,0.011,0.103c0,0.045-0.005,0.078-0.005,0.078l-0.003,0.025l-0.021,0.016
		c-0.006,0.002-0.106,0.09-0.22,0.096C75.65,44.184,75.627,44.18,75.605,44.167"/>
	<path clip-path="url(#SVGID_4_)" fill="#FAB900" d="M75.852,42.253c0,0,0.023,0.185-0.043,0.224l-1.023,0.59
		c-0.412,0.238-0.793,0.457-0.793,0.457l-1.023,0.591c-0.065,0.039-0.215-0.074-0.215-0.074s-0.022-0.185,0.045-0.224l1.021-0.59
		c0,0,0.379-0.219,0.793-0.459l1.022-0.588C75.703,42.141,75.852,42.253,75.852,42.253"/>
	<path clip-path="url(#SVGID_4_)" fill="#FAB900" d="M72.848,44.028c0.033,0.02,0.075,0.035,0.089,0.033h0.003l1.021-0.588
		c0.002-0.002,0.381-0.223,0.793-0.459l1.021-0.59c0.002,0,0.002-0.002,0.004-0.004c0.001-0.004,0.006-0.013,0.007-0.022
		c0.006-0.022,0.008-0.05,0.008-0.074c0-0.015,0-0.026-0.002-0.036c-0.008-0.006-0.021-0.014-0.035-0.021
		c-0.032-0.021-0.073-0.035-0.088-0.034h-0.004l-1.021,0.59c-0.414,0.239-0.793,0.458-0.793,0.458l-1.021,0.59
		c0,0-0.002,0.001-0.003,0.003c-0.002,0.005-0.006,0.013-0.009,0.024c-0.004,0.019-0.007,0.049-0.007,0.074
		c0,0.013,0.001,0.025,0.001,0.035C72.821,44.012,72.834,44.02,72.848,44.028 M72.937,44.182c-0.112-0.004-0.213-0.092-0.219-0.094
		l-0.022-0.016l-0.003-0.025c0,0-0.004-0.033-0.004-0.076c0-0.031,0.002-0.067,0.01-0.104c0.01-0.035,0.025-0.076,0.069-0.103
		l1.022-0.59c0,0,0.38-0.221,0.793-0.457l1.022-0.59c0.021-0.014,0.043-0.018,0.063-0.018c0.113,0.005,0.214,0.095,0.22,0.095
		l-0.037,0.05l0.037-0.05l0.021,0.017l0.003,0.024c0,0.002,0.005,0.035,0.005,0.078c0,0.03-0.003,0.067-0.011,0.103
		c-0.01,0.035-0.025,0.076-0.068,0.104l-1.021,0.59c-0.414,0.237-0.793,0.458-0.793,0.458l-1.022,0.591
		C72.979,44.18,72.957,44.182,72.937,44.182L72.937,44.182z"/>
	<polygon clip-path="url(#SVGID_4_)" fill="#1D1D1B" points="77.492,40.776 77.394,44.961 76.748,44.961 76.928,39.799 
		77.771,39.799 79.26,43.792 80.75,39.799 81.594,39.799 81.772,44.961 81.129,44.961 81.028,40.776 79.711,44.295 78.812,44.295 	
		"/>
	<path clip-path="url(#SVGID_4_)" fill="#1D1D1B" d="M84.668,43.435h-0.961c-0.404,0-0.551,0.124-0.551,0.503
		c0,0.389,0.068,0.543,0.534,0.543c0.326,0,0.689-0.123,0.978-0.311V43.435z M85.318,44.962h-0.551l-0.038-0.28
		c-0.334,0.234-0.769,0.357-1.225,0.357c-0.706,0-1-0.418-1-1.086c0-0.782,0.396-1.062,1.155-1.062h1.008v-0.59
		c0-0.472-0.211-0.636-0.822-0.636c-0.365,0-0.719,0.037-1.012,0.099l-0.07-0.519c0.355-0.094,0.717-0.139,1.121-0.139
		c1.076,0,1.434,0.42,1.434,1.227V44.962z"/>
	<path clip-path="url(#SVGID_4_)" fill="#1D1D1B" d="M88.061,41.706c-0.355,0.172-0.768,0.436-1.077,0.651v2.604h-0.651v-3.775
		h0.567l0.036,0.527c0.279-0.217,0.668-0.449,1.041-0.605L88.061,41.706z"/>
	<path clip-path="url(#SVGID_4_)" fill="#1D1D1B" d="M89.766,45.04c-0.385,0-0.898-0.084-1.201-0.201l0.086-0.512
		c0.324,0.092,0.753,0.154,1.078,0.154c0.596,0,0.697-0.107,0.697-0.512c0-0.402-0.031-0.449-0.791-0.635
		c-0.938-0.233-1.024-0.428-1.024-1.209c0-0.699,0.312-1.018,1.303-1.018c0.365,0,0.761,0.046,1.071,0.132l-0.047,0.535
		c-0.317-0.062-0.736-0.108-1.047-0.108c-0.558,0-0.635,0.133-0.635,0.475c0,0.417,0.008,0.494,0.643,0.65
		c1.086,0.271,1.17,0.402,1.17,1.154C91.068,44.683,90.844,45.04,89.766,45.04"/>
	<path clip-path="url(#SVGID_4_)" fill="#1D1D1B" d="M92.491,42.783h1.621v-0.31c0-0.526-0.179-0.821-0.79-0.821
		c-0.613,0-0.831,0.295-0.831,0.821V42.783z M93.393,44.481c0.371,0,0.781-0.07,1.192-0.178l0.087,0.52
		c-0.357,0.132-0.861,0.217-1.334,0.217c-1.119,0-1.496-0.535-1.496-1.388v-1.134c0-0.781,0.355-1.41,1.48-1.41
		c1.115,0,1.419,0.645,1.419,1.427v0.791h-2.25v0.319C92.491,44.24,92.654,44.481,93.393,44.481"/>
	<path clip-path="url(#SVGID_4_)" fill="#1D1D1B" d="M95.594,41.186h0.651v3.775h-0.651V41.186z M95.594,39.643h0.651v0.939h-0.651
		V39.643z"/>
	<polygon clip-path="url(#SVGID_4_)" fill="#1D1D1B" points="97.485,44.962 97.485,39.643 98.135,39.551 98.135,44.962 	"/>
	<polygon clip-path="url(#SVGID_4_)" fill="#1D1D1B" points="99.377,44.962 99.377,39.643 100.028,39.551 100.028,44.962 	"/>
	<path clip-path="url(#SVGID_4_)" fill="#1D1D1B" d="M101.467,42.783h1.621v-0.31c0-0.526-0.18-0.821-0.791-0.821
		c-0.613,0-0.83,0.295-0.83,0.821V42.783z M102.367,44.481c0.371,0,0.781-0.07,1.193-0.178l0.086,0.52
		c-0.357,0.132-0.861,0.217-1.334,0.217c-1.117,0-1.496-0.535-1.496-1.388v-1.134c0-0.781,0.355-1.41,1.48-1.41
		c1.117,0,1.419,0.645,1.419,1.427v0.791h-2.249v0.319C101.467,44.24,101.63,44.481,102.367,44.481"/>
	<path clip-path="url(#SVGID_4_)" fill="#1D1D1B" d="M109.94,39.933v3.597c0,0.817-0.472,1.479-1.771,1.479
		s-1.773-0.662-1.773-1.479v-3.597h0.646v3.56c0,0.614,0.338,0.938,1.127,0.938s1.125-0.323,1.125-0.938v-3.56H109.94z"/>
	<path clip-path="url(#SVGID_4_)" fill="#1D1D1B" d="M113.443,44.934v-2.793c0-0.242-0.121-0.338-0.354-0.338
		c-0.27,0-0.834,0.164-1.224,0.367v2.764h-0.632v-3.658h0.512l0.061,0.316c0.404-0.195,1.035-0.391,1.471-0.391
		c0.587,0,0.797,0.367,0.797,0.932v2.801H113.443z"/>
	<path clip-path="url(#SVGID_4_)" fill="#1D1D1B" d="M115.238,41.277h0.63v3.658h-0.63V41.277z M115.238,39.783h0.63v0.908h-0.63
		V39.783z"/>
	<polygon clip-path="url(#SVGID_4_)" fill="#1D1D1B" points="119.166,41.278 119.787,41.278 118.578,44.935 117.738,44.935 
		116.528,41.278 117.152,41.278 118.157,44.417 	"/>
	<path clip-path="url(#SVGID_4_)" fill="#1D1D1B" d="M120.893,42.823h1.57v-0.299c0-0.51-0.174-0.797-0.768-0.797
		c-0.592,0-0.803,0.287-0.803,0.797V42.823z M121.764,44.468c0.361,0,0.758-0.067,1.157-0.174l0.082,0.505
		c-0.347,0.127-0.834,0.209-1.292,0.209c-1.082,0-1.45-0.518-1.45-1.344v-1.096c0-0.758,0.347-1.367,1.435-1.367
		c1.082,0,1.373,0.623,1.373,1.381v0.768h-2.176v0.307C120.893,44.237,121.05,44.468,121.764,44.468"/>
	<path clip-path="url(#SVGID_4_)" fill="#1D1D1B" d="M125.736,41.78c-0.346,0.165-0.744,0.421-1.045,0.631v2.524h-0.63v-3.658h0.548
		l0.037,0.511c0.27-0.211,0.646-0.436,1.007-0.586L125.736,41.78z"/>
	<path clip-path="url(#SVGID_4_)" fill="#1D1D1B" d="M127.389,45.008c-0.377,0-0.871-0.082-1.166-0.195l0.084-0.494
		c0.315,0.09,0.728,0.15,1.043,0.15c0.577,0,0.676-0.105,0.676-0.496s-0.029-0.436-0.765-0.617c-0.909-0.224-0.991-0.412-0.991-1.17
		c0-0.677,0.301-0.984,1.26-0.984c0.354,0,0.736,0.045,1.039,0.129l-0.047,0.518c-0.308-0.06-0.713-0.105-1.015-0.105
		c-0.541,0-0.614,0.128-0.614,0.457c0,0.406,0.008,0.48,0.623,0.632c1.053,0.262,1.135,0.392,1.135,1.118
		C128.65,44.663,128.432,45.008,127.389,45.008"/>
	<path clip-path="url(#SVGID_4_)" fill="#1D1D1B" d="M129.671,41.277h0.63v3.658h-0.63V41.277z M129.671,39.783h0.63v0.908h-0.63
		V39.783z"/>
	<path clip-path="url(#SVGID_4_)" fill="#1D1D1B" d="M133.41,44.874c-0.227,0.084-0.496,0.135-0.767,0.135
		c-0.615,0-0.908-0.225-0.908-0.834v-2.373h-0.646v-0.524h0.646v-0.901l0.63-0.091v0.992h1.037l-0.053,0.524h-0.984v2.269
		c0,0.271,0.037,0.407,0.377,0.407c0.172,0,0.354-0.032,0.586-0.092L133.41,44.874z"/>
	<path clip-path="url(#SVGID_4_)" fill="#1D1D1B" d="M135.047,40.444c0.375-0.219,0.767-0.465,1.029-0.685l0.27,0.421
		c-0.346,0.256-0.659,0.451-1.045,0.653L135.047,40.444z M134.715,42.823h1.57v-0.299c0-0.51-0.173-0.797-0.766-0.797
		c-0.594,0-0.805,0.287-0.805,0.797V42.823z M135.588,44.468c0.359,0,0.758-0.067,1.156-0.173l0.082,0.504
		c-0.346,0.127-0.834,0.21-1.291,0.21c-1.082,0-1.449-0.519-1.449-1.345v-1.096c0-0.76,0.346-1.369,1.434-1.369
		c1.083,0,1.374,0.625,1.374,1.383v0.768h-2.179v0.307C134.715,44.235,134.873,44.468,135.588,44.468"/>
	<polygon clip-path="url(#SVGID_4_)" fill="#04BAEE" points="63.209,24.017 63.209,16.732 67.541,16.732 67.541,17.574 
		64.149,17.574 64.149,20.002 67.312,20.002 67.312,20.844 64.149,20.844 64.149,24.017 	"/>
	<path clip-path="url(#SVGID_4_)" fill="#04BAEE" d="M72.735,24.017h-0.777l-0.055-0.394c-0.47,0.328-1.082,0.503-1.727,0.503
		c-0.996,0-1.411-0.591-1.411-1.531c0-1.105,0.557-1.499,1.629-1.499h1.422v-0.831c0-0.667-0.295-0.897-1.159-0.897
		c-0.514,0-1.181,0.088-1.597,0.175l-0.099-0.733c0.504-0.131,1.182-0.229,1.75-0.229c1.521,0,2.024,0.59,2.024,1.728V24.017z
		 M71.816,21.862H70.46c-0.569,0-0.777,0.175-0.777,0.711c0,0.547,0.099,0.766,0.755,0.766c0.459,0,0.973-0.175,1.378-0.438V21.862z
		"/>
	<path clip-path="url(#SVGID_4_)" fill="#04BAEE" d="M74.134,22.19v-1.673c0-1.225,0.459-1.936,2.122-1.936
		c0.47,0,0.995,0.076,1.268,0.164l-0.076,0.765c-0.416-0.087-0.799-0.12-1.17-0.12c-0.918,0-1.225,0.263-1.225,1.094v1.739
		c0,0.831,0.307,1.094,1.225,1.094c0.371,0,0.754-0.033,1.17-0.121l0.088,0.766c-0.273,0.087-0.81,0.164-1.279,0.164
		C74.549,24.126,74.134,23.415,74.134,22.19"/>
	<path clip-path="url(#SVGID_4_)" fill="#04BAEE" d="M79.908,18.69v4.069c0,0.35,0.174,0.492,0.514,0.492
		c0.394,0,1.214-0.241,1.783-0.536V18.69h0.918v5.327H82.38l-0.087-0.46c-0.592,0.285-1.51,0.569-2.145,0.569
		c-0.854,0-1.16-0.536-1.16-1.356v-4.08H79.908z"/>
	<polygon clip-path="url(#SVGID_4_)" fill="#04BAEE" points="84.981,24.017 84.981,16.514 85.9,16.382 85.9,24.017 	"/>
	<path clip-path="url(#SVGID_4_)" fill="#04BAEE" d="M90.537,23.929c-0.328,0.12-0.723,0.197-1.116,0.197
		c-0.897,0-1.323-0.328-1.323-1.214v-3.456h-0.941V18.69h0.941v-1.313l0.92-0.131v1.444h1.508l-0.076,0.766h-1.432v3.303
		c0,0.393,0.053,0.59,0.545,0.59c0.252,0,0.514-0.043,0.854-0.131L90.537,23.929z"/>
	<path clip-path="url(#SVGID_4_)" fill="#04BAEE" d="M93.816,23.338c0.525,0,1.105-0.098,1.686-0.251l0.12,0.733
		c-0.503,0.186-1.214,0.306-1.882,0.306c-1.574,0-2.11-0.755-2.11-1.958v-1.597c0-1.104,0.503-1.99,2.089-1.99
		c1.575,0,2.001,0.908,2.001,2.012v1.116h-3.171v0.448C92.549,22.999,92.777,23.338,93.816,23.338 M92.549,20.943h2.286v-0.437
		c0-0.744-0.252-1.16-1.116-1.16c-0.863,0-1.17,0.416-1.17,1.16V20.943z M93.029,17.476c0.547-0.317,1.115-0.678,1.498-0.995
		l0.395,0.612c-0.503,0.372-0.962,0.656-1.52,0.952L93.029,17.476z"/>
	<path clip-path="url(#SVGID_4_)" fill="#04BAEE" d="M62.958,30.735c0-1.062,0.481-1.739,1.728-1.739c0.47,0,1.094,0.076,1.52,0.164
		v-2.232l0.919-0.131v7.634h-0.777l-0.076-0.48c-0.438,0.35-1.061,0.591-1.761,0.591c-1.05,0-1.553-0.558-1.553-1.63V30.735z
		 M66.206,29.968c-0.492-0.098-1.094-0.164-1.465-0.164c-0.613,0-0.865,0.284-0.865,0.93v2.176c0,0.547,0.175,0.82,0.821,0.82
		c0.525,0,1.115-0.285,1.509-0.635V29.968z"/>
	<path clip-path="url(#SVGID_4_)" fill="#04BAEE" d="M70.897,33.752c0.525,0,1.105-0.098,1.684-0.251l0.121,0.733
		c-0.504,0.186-1.214,0.306-1.882,0.306c-1.575,0-2.111-0.755-2.111-1.958v-1.598c0-1.104,0.504-1.989,2.089-1.989
		c1.575,0,2.002,0.907,2.002,2.012v1.116h-3.172v0.447C69.628,33.414,69.858,33.752,70.897,33.752 M69.628,31.358h2.286V30.92
		c0-0.744-0.251-1.16-1.116-1.16c-0.864,0-1.17,0.416-1.17,1.16V31.358z"/>
	<path clip-path="url(#SVGID_4_)" fill="#04BAEE" d="M75.829,34.54c-0.547,0-1.269-0.119-1.694-0.283l0.119-0.723
		c0.459,0.131,1.061,0.219,1.52,0.219c0.844,0,0.986-0.153,0.986-0.721c0-0.569-0.045-0.635-1.117-0.897
		c-1.323-0.328-1.443-0.603-1.443-1.707c0-0.984,0.438-1.432,1.838-1.432c0.514,0,1.072,0.065,1.51,0.186l-0.066,0.754
		c-0.448-0.087-1.038-0.153-1.477-0.153c-0.787,0-0.896,0.186-0.896,0.667c0,0.59,0.011,0.699,0.908,0.918
		c1.531,0.383,1.651,0.569,1.651,1.631C77.667,34.038,77.35,34.54,75.829,34.54"/>
	<path clip-path="url(#SVGID_4_)" fill="#04BAEE" d="M83.67,34.54c-0.701,0-1.543-0.131-2.166-0.383l0.153-0.765
		c0.667,0.207,1.367,0.317,2.034,0.317c1.17,0,1.411-0.307,1.411-1.139c0-0.983-0.011-1.072-1.511-1.41
		c-1.76-0.394-1.967-0.733-1.967-2.243c0-1.269,0.524-1.881,2.33-1.881c0.633,0,1.389,0.087,1.967,0.241l-0.075,0.798
		c-0.58-0.131-1.269-0.208-1.871-0.208c-1.192,0-1.411,0.241-1.411,1.083c0,1.006,0,1.049,1.443,1.411
		c1.937,0.481,2.035,0.766,2.035,2.188C86.043,33.819,85.672,34.54,83.67,34.54"/>
	<path clip-path="url(#SVGID_4_)" fill="#04BAEE" d="M87.408,32.604v-1.673c0-1.225,0.461-1.936,2.123-1.936
		c0.47,0,0.994,0.076,1.269,0.164l-0.077,0.765c-0.416-0.087-0.798-0.12-1.17-0.12c-0.919,0-1.225,0.263-1.225,1.095v1.738
		c0,0.831,0.306,1.094,1.225,1.094c0.372,0,0.754-0.033,1.17-0.121l0.088,0.767c-0.273,0.087-0.81,0.164-1.279,0.164
		C87.824,34.541,87.408,33.829,87.408,32.604"/>
	<path clip-path="url(#SVGID_4_)" fill="#04BAEE" d="M92.318,26.928h0.92v1.323h-0.92V26.928z M92.318,29.104h0.92v5.326h-0.92
		V29.104z"/>
	<path clip-path="url(#SVGID_4_)" fill="#04BAEE" d="M97.011,33.752c0.524,0,1.104-0.098,1.685-0.251l0.119,0.733
		c-0.503,0.186-1.214,0.306-1.881,0.306c-1.574,0-2.111-0.755-2.111-1.958v-1.598c0-1.104,0.504-1.989,2.09-1.989
		c1.574,0,2.002,0.907,2.002,2.012v1.116h-3.172v0.447C95.742,33.414,95.972,33.752,97.011,33.752 M95.742,31.358h2.285V30.92
		c0-0.744-0.252-1.16-1.115-1.16c-0.864,0-1.17,0.416-1.17,1.16V31.358z"/>
	<path clip-path="url(#SVGID_4_)" fill="#04BAEE" d="M103.682,34.43v-4.068c0-0.35-0.176-0.492-0.515-0.492
		c-0.394,0-1.214,0.241-1.782,0.536v4.024h-0.919v-5.326h0.743l0.088,0.46c0.59-0.285,1.51-0.569,2.145-0.569
		c0.853,0,1.158,0.536,1.158,1.356v4.079H103.682z"/>
	<path clip-path="url(#SVGID_4_)" fill="#04BAEE" d="M106.075,32.604v-1.673c0-1.225,0.46-1.936,2.122-1.936
		c0.47,0,0.994,0.076,1.27,0.164l-0.078,0.765c-0.414-0.087-0.797-0.12-1.17-0.12c-0.918,0-1.225,0.263-1.225,1.095v1.738
		c0,0.831,0.307,1.094,1.225,1.094c0.373,0,0.756-0.033,1.17-0.121l0.088,0.767c-0.272,0.087-0.81,0.164-1.279,0.164
		C106.491,34.541,106.075,33.829,106.075,32.604"/>
	<path clip-path="url(#SVGID_4_)" fill="#04BAEE" d="M112.899,33.752c0.524,0,1.104-0.098,1.685-0.251l0.119,0.733
		c-0.503,0.186-1.213,0.306-1.881,0.306c-1.575,0-2.111-0.755-2.111-1.958v-1.598c0-1.104,0.504-1.989,2.09-1.989
		c1.574,0,2.002,0.907,2.002,2.012v1.116h-3.172v0.447C111.631,33.414,111.86,33.752,112.899,33.752 M111.631,31.358h2.285V30.92
		c0-0.744-0.251-1.16-1.115-1.16c-0.865,0-1.17,0.416-1.17,1.16V31.358z"/>
	<path clip-path="url(#SVGID_4_)" fill="#04BAEE" d="M117.83,34.54c-0.547,0-1.269-0.119-1.694-0.283l0.12-0.723
		c0.459,0.131,1.061,0.219,1.52,0.219c0.844,0,0.985-0.153,0.985-0.721c0-0.569-0.044-0.635-1.116-0.897
		c-1.322-0.328-1.443-0.603-1.443-1.707c0-0.984,0.438-1.432,1.838-1.432c0.514,0,1.071,0.065,1.508,0.186l-0.064,0.754
		c-0.449-0.087-1.04-0.153-1.477-0.153c-0.788,0-0.897,0.186-0.897,0.667c0,0.59,0.011,0.699,0.908,0.918
		c1.53,0.383,1.651,0.569,1.651,1.631C119.668,34.038,119.351,34.54,117.83,34.54"/>
	<path clip-path="url(#SVGID_4_)" fill="#0071BA" d="M33.395,29.624c0.608,3.514-1.748,6.855-5.262,7.464
		c-3.514,0.608-6.856-1.749-7.464-5.263c-0.607-3.514,1.749-6.855,5.263-7.463C29.446,23.753,32.787,26.108,33.395,29.624"/>
	<path clip-path="url(#SVGID_4_)" fill="#04BAEE" d="M14.389,18.35c1.879-1.828,9.502,3.341,15.72,9.133
		c3.379,3.147,6.279,6.381,8.166,9.104c1.394,2.012,2.833,4.625,1.771,5.66l-0.492-0.458c0.446-0.435,0.2-1.943-1.831-4.875
		c-1.859-2.683-4.724-5.876-8.067-8.989c-7.27-6.772-13.622-10.239-14.775-9.117L14.389,18.35z"/>
	<path clip-path="url(#SVGID_4_)" fill="#0071BA" d="M43.503,25.272c0.521,2.478-7.843,6.313-15.977,8.664
		c-4.419,1.277-8.655,2.11-11.927,2.346c-2.417,0.175-5.359,0.09-5.655-1.312l0.643-0.186c0.124,0.588,1.512,1.128,5.033,0.875
		c3.224-0.233,7.408-1.057,11.781-2.321c9.508-2.747,15.779-6.358,15.459-7.879L43.503,25.272z"/>
	<path clip-path="url(#SVGID_4_)" fill="#FAB900" d="M19.411,46.329c-0.135-0.023-0.261-0.07-0.379-0.141l0.31-0.595
		c1.357,0.815,6.057-4.403,10.64-13.194c4.584-8.792,6.27-15.829,4.916-16.646l0.311-0.594c2.204,1.329-0.774,10.04-4.695,17.56
		C26.802,39.839,21.804,46.739,19.411,46.329"/>
</g>
</svg>
