<svg width="1920" height="699" viewBox="0 0 1920 699" fill="none" xmlns="http://www.w3.org/2000/svg">
<mask id="mask0_12_12" style="mask-type:luminance" maskUnits="userSpaceOnUse" x="0" y="0" width="1921" height="699">
<path d="M1920 0H0V698.413H1920V0Z" fill="white"/>
</mask>
<g mask="url(#mask0_12_12)">
<g filter="url(#filter0_f_12_12)">
<path d="M632.919 588.155C370.913 588.155 158.514 637.191 158.514 697.68C158.514 758.169 370.913 807.205 632.919 807.205C894.926 807.205 1107.32 758.169 1107.32 697.68C1107.32 637.191 894.926 588.155 632.919 588.155Z" fill="#FFB800" fill-opacity="0.43"/>
</g>
<g filter="url(#filter1_f_12_12)">
<path d="M916.57 422.857C654.564 422.857 442.165 516.353 442.165 631.685C442.165 747.018 654.564 840.513 916.57 840.513C1178.58 840.513 1390.98 747.018 1390.98 631.685C1390.98 516.353 1178.58 422.857 916.57 422.857Z" fill="#E93F3F" fill-opacity="0.43"/>
</g>
<g filter="url(#filter2_f_12_12)">
<path d="M1288.13 524.06C1026.12 524.06 813.722 587.48 813.722 665.712C813.722 743.944 1026.12 807.364 1288.13 807.364C1550.13 807.364 1762.53 743.944 1762.53 665.712C1762.53 587.48 1550.13 524.06 1288.13 524.06Z" fill="#3F64E9" fill-opacity="0.43"/>
</g>
</g>
<defs>
<filter id="filter0_f_12_12" x="-70.5817" y="359.059" width="1407" height="677.242" filterUnits="userSpaceOnUse" color-interpolation-filters="sRGB">
<feFlood flood-opacity="0" result="BackgroundImageFix"/>
<feBlend mode="normal" in="SourceGraphic" in2="BackgroundImageFix" result="shape"/>
<feGaussianBlur stdDeviation="114.548" result="effect1_foregroundBlur_12_12"/>
</filter>
<filter id="filter1_f_12_12" x="213.069" y="193.761" width="1407" height="875.848" filterUnits="userSpaceOnUse" color-interpolation-filters="sRGB">
<feFlood flood-opacity="0" result="BackgroundImageFix"/>
<feBlend mode="normal" in="SourceGraphic" in2="BackgroundImageFix" result="shape"/>
<feGaussianBlur stdDeviation="114.548" result="effect1_foregroundBlur_12_12"/>
</filter>
<filter id="filter2_f_12_12" x="584.626" y="294.964" width="1407" height="741.496" filterUnits="userSpaceOnUse" color-interpolation-filters="sRGB">
<feFlood flood-opacity="0" result="BackgroundImageFix"/>
<feBlend mode="normal" in="SourceGraphic" in2="BackgroundImageFix" result="shape"/>
<feGaussianBlur stdDeviation="114.548" result="effect1_foregroundBlur_12_12"/>
</filter>
</defs>
</svg>
