<svg width="828" height="770" viewBox="0 0 828 770" fill="none" xmlns="http://www.w3.org/2000/svg">
<circle cx="466" cy="362" r="362" fill="#000C1C"/>
<path d="M660.134 155.06C659.487 158.407 658.402 161.656 656.323 164.421C651.907 170.297 639.381 175.329 634.791 166.831C633.519 164.477 632.756 161.051 633.935 158.513C635.232 155.722 638.923 154.714 641.094 157.156C644.242 160.698 639.529 165.926 636.564 167.681C635.121 168.534 633.537 169.169 631.912 169.577C622.161 172.03 617.007 161.585 616.937 153.442C616.906 149.892 617.602 146.234 619.053 142.999" stroke="#9A9B9C" stroke-width="2" stroke-miterlimit="1.5" stroke-linecap="round" stroke-linejoin="round"/>
<path d="M618.126 143.838C617.479 147.184 616.394 150.433 614.316 153.198C609.9 159.074 597.373 164.106 592.783 155.609C591.511 153.254 590.748 149.828 591.927 147.29C593.224 144.499 596.915 143.491 599.086 145.934C602.234 149.475 597.521 154.703 594.556 156.458C593.113 157.312 591.529 157.946 589.905 158.355C580.153 160.807 574.999 150.362 574.929 142.219C574.898 138.669 575.594 135.012 577.046 131.776" stroke="#9A9B9C" stroke-width="2" stroke-miterlimit="1.5" stroke-linecap="round" stroke-linejoin="round"/>
<path d="M703.124 154.932C703.435 158.327 703.298 161.749 702.073 164.984C699.47 171.858 688.842 180.183 682.066 173.301C680.188 171.394 678.5 168.317 678.925 165.551C679.393 162.509 682.656 160.512 685.423 162.253C689.433 164.776 686.364 171.111 684.005 173.623C682.858 174.844 681.513 175.896 680.067 176.741C671.385 181.814 663.524 173.219 661.187 165.419C660.168 162.018 659.817 158.311 660.309 154.8" stroke="#9A9B9C" stroke-width="2" stroke-miterlimit="1.5" stroke-linecap="round" stroke-linejoin="round"/>
<path d="M726.561 120.6C729.624 122.095 732.479 123.988 734.608 126.714C739.134 132.507 740.734 145.911 731.335 148.133C728.731 148.748 725.224 148.594 723.081 146.796C720.723 144.817 720.71 140.991 723.633 139.53C727.871 137.411 731.693 143.322 732.617 146.642C733.066 148.257 733.267 149.951 733.238 151.626C733.07 161.68 721.644 163.94 713.763 161.89C710.327 160.996 706.976 159.373 704.23 157.129" stroke="#9A9B9C" stroke-width="2" stroke-miterlimit="1.5" stroke-linecap="round" stroke-linejoin="round"/>
<path d="M731.834 78.1363C735.241 78.2314 738.623 78.7747 741.689 80.3764C748.204 83.7796 755.204 95.3232 747.564 101.232C745.447 102.869 742.191 104.178 739.495 103.427C736.53 102.601 734.937 99.1225 736.994 96.5832C739.977 92.902 745.901 96.7038 748.114 99.3447C749.191 100.629 750.074 102.089 750.741 103.626C754.744 112.85 745.275 119.632 737.252 121.023C733.753 121.63 730.031 121.537 726.603 120.63" stroke="#9A9B9C" stroke-width="2" stroke-miterlimit="1.5" stroke-linecap="round" stroke-linejoin="round"/>
<path d="M655.88 60.0111C656.842 56.7413 658.232 53.6105 660.564 51.056C665.519 45.6268 678.469 41.8099 682.229 50.7061C683.27 53.1711 683.704 56.6541 682.289 59.068C680.732 61.7231 676.962 62.375 675.033 59.7369C672.236 55.9122 677.426 51.1563 680.545 49.6917C682.062 48.9792 683.699 48.4983 685.355 48.2464C695.296 46.7335 699.432 57.6217 698.727 65.7342C698.419 69.2712 697.379 72.846 695.626 75.9283" stroke="#9A9B9C" stroke-width="2" stroke-miterlimit="1.5" stroke-linecap="round" stroke-linejoin="round"/>
<path d="M697.739 62.097C698.702 58.8272 700.091 55.6965 702.423 53.142C707.379 47.7127 720.328 43.8958 724.088 52.792C725.13 55.257 725.563 58.74 724.148 61.154C722.591 63.8091 718.821 64.461 716.892 61.8228C714.096 57.9981 719.285 53.2422 722.404 51.7776C723.921 51.0652 725.558 50.5842 727.215 50.3323C737.155 48.8195 741.291 59.7076 740.586 67.8201C740.279 71.3572 739.238 74.9319 737.485 78.0142" stroke="#9A9B9C" stroke-width="2" stroke-miterlimit="1.5" stroke-linecap="round" stroke-linejoin="round"/>
<path d="M613.072 56.0467C613.085 52.6382 613.547 49.2442 615.074 46.1409C618.32 39.5456 629.692 32.2707 635.783 39.7663C637.47 41.8432 638.857 45.0674 638.171 47.7801C637.416 50.7639 633.977 52.4408 631.389 50.4449C627.637 47.5513 631.296 41.5373 633.883 39.2615C635.141 38.1544 636.579 37.2361 638.1 36.5326C647.225 32.3089 654.232 41.6127 655.816 49.6002C656.506 53.0829 656.503 56.806 655.679 60.2548" stroke="#9A9B9C" stroke-width="2" stroke-miterlimit="1.5" stroke-linecap="round" stroke-linejoin="round"/>
<path d="M586.47 87.9924C583.563 86.2123 580.902 84.0562 579.042 81.14C575.088 74.943 574.771 61.4468 584.339 60.1301C586.99 59.7655 590.466 60.2528 592.429 62.2471C594.587 64.4409 594.236 68.2508 591.187 69.4273C586.767 71.1327 583.524 64.8847 582.921 61.4923C582.628 59.8422 582.59 58.1361 582.777 56.4714C583.902 46.4793 595.491 45.3177 603.141 48.1086C606.476 49.3257 609.657 51.2603 612.178 53.7548" stroke="#9A9B9C" stroke-width="2" stroke-miterlimit="1.5" stroke-linecap="round" stroke-linejoin="round"/>
<path d="M577.179 129.759C573.797 129.34 570.482 128.477 567.583 126.59C561.421 122.582 555.552 110.425 563.719 105.27C565.983 103.842 569.349 102.849 571.961 103.853C574.833 104.958 576.089 108.572 573.799 110.904C570.479 114.285 564.943 109.936 562.992 107.097C562.043 105.715 561.302 104.178 560.785 102.585C557.678 93.0214 567.75 87.1722 575.869 86.5506C579.409 86.2799 583.105 86.7262 586.432 87.9556" stroke="#9A9B9C" stroke-width="2" stroke-miterlimit="1.5" stroke-linecap="round" stroke-linejoin="round"/>
<path d="M13.9579 767.846C7.04546 738.806 7.49937 708.245 24.9254 682.337C40.6546 658.952 66.2068 650.212 84.0055 676.841C92.4311 689.446 93.9951 710.023 82.3937 721.293C69.4688 733.848 55.5726 714.744 53.8994 702.903C49.991 675.247 67.6353 645.17 97.4981 638.476C132.862 630.548 135.294 667.753 135.055 667.687" stroke="#4D5055" stroke-width="2.79" stroke-miterlimit="1.5" stroke-linecap="round" stroke-linejoin="round"/>
<path d="M13.9579 767.846C7.04546 738.806 7.49937 708.245 24.9254 682.337C40.6546 658.952 66.2068 650.212 84.0055 676.841C92.4311 689.446 93.9951 710.023 82.3937 721.293C69.4688 733.848 55.5726 714.744 53.8994 702.903C49.991 675.247 67.6353 645.17 97.4981 638.476C132.862 630.548 135.294 667.753 135.055 667.687" stroke="#4D5055" stroke-width="2.79" stroke-miterlimit="1.5" stroke-linecap="round" stroke-linejoin="round"/>
<path d="M13.9579 767.846C7.04546 738.806 7.49937 708.245 24.9254 682.337C40.6546 658.952 66.2068 650.212 84.0055 676.841C92.4311 689.446 93.9951 710.023 82.3937 721.293C69.4688 733.848 55.5726 714.744 53.8994 702.903C49.991 675.247 67.6353 645.17 97.4981 638.476C132.862 630.548 135.294 667.753 135.055 667.687" stroke="#4D5055" stroke-width="2.79" stroke-miterlimit="1.5" stroke-linecap="round" stroke-linejoin="round"/>
<path d="M244.844 585.402C248.052 612.665 244.983 640.607 228.173 662.649C213 682.544 190.926 688.077 178.429 661.971C172.514 649.613 173.021 630.617 183.686 621.418C195.568 611.17 205.472 630.008 205.825 641.014C206.65 666.718 189.291 692.557 163.802 695.8C133.618 699.641 134.866 665.334 135.059 665.418" stroke="#4D5055" stroke-width="2.79" stroke-miterlimit="1.5" stroke-linecap="round" stroke-linejoin="round"/>
<path d="M267.36 603.465C264.644 602.874 262.45 601.114 260.179 599.483C252.72 594.125 246.246 585.736 244.15 576C243.302 586.798 238.889 600.503 229.594 605.549" stroke="#4D5055" stroke-width="2.79" stroke-miterlimit="1.5" stroke-linecap="round" stroke-linejoin="round"/>
</svg>
