<?xml version="1.0" encoding="utf-8"?>
<!-- Generator: Adobe Illustrator 25.0.1, SVG Export Plug-In . SVG Version: 6.00 Build 0)  -->
<svg version="1.0" id="katman_1" xmlns="http://www.w3.org/2000/svg" xmlns:xlink="http://www.w3.org/1999/xlink" x="0px" y="0px"
	 viewBox="0 0 985.2 651" style="enable-background:new 0 0 985.2 651;" xml:space="preserve">
<path d="M359.2,400.2V297H394v103.2H359.2L359.2,400.2z M376.8,288.6c-5.9,0-10.4-1.5-13.6-4.4c-3.1-2.9-4.6-6.8-4.6-11.7
	c0-4.6,1.5-8.5,4.6-11.7c3.2-3.2,7.8-4.8,13.6-4.8c5.9,0,10.3,1.6,13.4,4.8c3.2,3.2,4.8,7.1,4.8,11.7c0,4.9-1.6,8.8-4.8,11.7
	C387.1,287.2,382.7,288.6,376.8,288.6L376.8,288.6z M445.9,402.3c-10.1,0-17.7-2.7-22.9-8c-5-5.5-7.5-13-7.5-22.6v-48.9h-13.8V297
	h13.8v-25.2h34.8V297H473v25.8h-22.7v43.8c0,3.2,0.6,5.5,1.9,6.9c1.4,1.3,3.5,1.9,6.3,1.9c3.8,0,7.9-1.7,12.4-5l8,22.9
	c-4.1,2.8-8.7,5-13.8,6.7C459.8,401.5,453.5,402.3,445.9,402.3L445.9,402.3z M531.5,402.3c-15.9,0-28.5-4.5-37.7-13.6
	c-9.1-9.1-13.6-22.3-13.6-39.6c0-12.6,2.6-23.1,7.8-31.7c5.3-8.8,12-14.7,19.9-17.8c8.4-3.2,16.1-4.8,23.3-4.8
	c8.9,0,16.4,1.8,22.4,5.5c6,3.5,10.4,7.3,13.2,11.5c2.9,4.2,5,7.5,6.3,9.9L549,337.1c-2.2-4.6-4.7-8.2-7.3-10.9
	c-2.7-2.7-5.9-4-9.6-4c-5.3,0-9.5,2.1-12.6,6.3c-3.1,4.2-4.6,10.6-4.6,19.1c0,9.2,1.8,16,5.4,20.3c3.6,4.3,8.8,6.5,15.5,6.5
	c5.3,0,9.7-1,13.2-2.9c3.6-2,7.1-4.5,10.3-7.5l11.1,26c-3.4,2.8-8.3,5.6-14.9,8.4C548.9,400.9,540.9,402.3,531.5,402.3L531.5,402.3z
	 M582.2,400.2V260.1h35v42.6c2.9-2.1,6.5-3.9,10.7-5.5c4.2-1.7,9.2-2.5,15.1-2.5c12.3,0,21.5,3.5,27.5,10.5c6.2,7,9.2,16.8,9.2,29.6
	v65.4h-35v-61.2c0-5.9-1.1-10.1-3.3-12.8c-2.2-2.8-5.2-4.2-8.8-4.2c-3.1,0-5.9,0.7-8.6,2.1c-2.7,1.4-4.9,2.9-6.7,4.4v71.7
	L582.2,400.2L582.2,400.2z M706.6,402.3c-5.6,0-10-1.6-13.2-4.8c-3.2-3.2-4.8-7.3-4.8-12.4c0-5,1.6-9.2,4.8-12.6
	c3.2-3.4,7.6-5,13.2-5c5.3,0,9.6,1.7,12.8,5c3.2,3.4,4.8,7.5,4.8,12.6c0,5-1.6,9.2-4.8,12.4C716.3,400.7,712.1,402.3,706.6,402.3
	L706.6,402.3z M732.3,400.2V297h34.8v103.2H732.3z M749.9,288.6c-5.9,0-10.4-1.5-13.6-4.4c-3.1-2.9-4.6-6.9-4.6-11.7
	c0-4.6,1.5-8.5,4.6-11.7c3.2-3.2,7.8-4.8,13.6-4.8c5.9,0,10.3,1.6,13.4,4.8c3.2,3.2,4.8,7.1,4.8,11.7c0,4.9-1.6,8.8-4.8,11.7
	C760.3,287.2,755.8,288.6,749.9,288.6z M828.6,402.3c-8.1,0-15.3-1.3-21.6-4c-6.3-2.8-11.7-6.6-16.1-11.3
	c-4.3-4.9-7.7-10.6-10.1-17.2c-2.2-6.7-3.4-14-3.4-21.8c0-11.6,2.5-21.7,7.6-30.4c5.2-8.5,11.6-14.5,19.3-17.8
	c7.8-3.4,15.9-5,24.3-5c12,0,21.9,2.8,29.8,8.4c8,5.6,13.6,12.6,16.8,21c3.2,8.4,4.8,16.4,4.8,23.9c0,7.8-1.2,15.1-3.6,21.8
	c-2.2,6.6-5.6,12.3-10.1,17.2c-4.3,4.8-9.7,8.5-16.2,11.3C843.9,401,836.7,402.3,828.6,402.3L828.6,402.3z M828.6,375.4
	c5.9,0,10.1-2.4,12.8-7.3c2.7-5,4-11.7,4-20.1c0-8-1.4-14.3-4.2-19.1c-2.8-4.8-7-7.1-12.6-7.1c-5.5,0-9.6,2.4-12.4,7.1
	s-4.2,11.1-4.2,19.1c0,8.4,1.3,15.1,4,20.1C818.9,373,823,375.4,828.6,375.4L828.6,375.4z"/>
<path d="M134.1,227.3c-9.6,5.7-28.6,27.6-28.8,33.3v9.5c0,12,11.2,22.6,21.4,22.6c12.2,0,22.4-10.1,22.4-22.2
	c0,12,9.9,22.2,22.1,22.2c12.2,0,21.8-10.1,21.8-22.2c0,12,10.5,22.2,22.7,22.2h0.2c12.2,0,22.7-10.1,22.7-22.2
	c0,12,9.5,22.2,21.8,22.2c12.2,0,22.1-10.1,22.1-22.2c0,12,10.2,22.2,22.4,22.2c10.2,0,21.4-10.6,21.4-22.6v-9.5
	c-0.2-5.7-19.2-27.6-28.8-33.3c-30-1.1-50.8-1.2-81.7-1.2C184.8,226.1,142.6,226.5,134.1,227.3L134.1,227.3z M192.8,287
	c-1.2,2-2.6,3.9-4.3,5.5c-4.8,4.7-11.2,7.3-17.9,7.3c-7,0-13.4-2.8-18-7.3c-1.7-1.6-2.9-3.4-4.1-5.4v0c-1.2,2-2.8,3.8-4.5,5.4
	c-4.8,4.7-11.3,7.3-18,7.3c-0.8,0-1.7-0.2-2.4-0.5c-1,10.2-1.4,20-1.5,27.2v0c0,3.6,0,6.6-0.1,10.8c0.2,21.5-2.1,69.7,9.5,81.5
	c18,4.2,51.1,6.1,84.3,6.1h0c33.2,0,66.3-1.9,84.3-6.1c11.6-11.8,9.3-60,9.5-81.5c0-4.1,0-7.1-0.1-10.8v0
	c-0.1-7.1-0.6-16.9-1.5-27.2c-0.7,0.2-1.6,0.5-2.4,0.5c-6.7,0-13.2-2.6-18-7.3c-1.7-1.6-3.3-3.4-4.5-5.4l0,0c-1.2,2-2.4,3.8-4.1,5.4
	c-4.6,4.5-11,7.3-18,7.3s-13.3-2.8-17.9-7.3c-1.7-1.6-3.1-3.5-4.3-5.5c-1.2,2-2.6,3.9-4.3,5.5c-4.8,4.7-11.3,7.3-18,7.3
	c-0.2,0-0.5,0-0.7,0h0c-0.2,0-0.5,0-0.7,0c-7,0-13.4-2.8-18-7.3C195.4,290.9,194,289,192.8,287L192.8,287z M174.3,310.8L174.3,310.8
	L174.3,310.8c7.3,0,13.8,0,21.9,8.8c6.3-0.7,12.9-1,19.6-1h0c6.6,0,13.2,0.3,19.6,1c8.1-8.8,14.5-8.8,21.9-8.8h0v0
	c3.5,0,17.3,0,26.9,27l10.3,37.1c7.7,27.6-2.5,28.3-15.1,28.3c-18.7-0.7-29.1-14.3-29.1-27.9c-10.4,1.7-22.4,2.6-34.5,2.6h0
	c-12.1,0-24.2-0.9-34.5-2.6c0,13.6-10.4,27.2-29.1,27.9c-12.6,0-22.7-0.7-15.1-28.3l10.3-37.1C157.1,310.8,170.9,310.8,174.3,310.8
	L174.3,310.8z M215.8,332.1L215.8,332.1c0,0-19.7,18.1-23.2,24.5l12.9-0.5v11.2c0,0.5,5.2,0.3,10.3,0.1h0c5.2,0.2,10.4,0.5,10.4-0.1
	v-11.2l12.9,0.5C235.5,350.2,215.8,332.1,215.8,332.1L215.8,332.1L215.8,332.1L215.8,332.1z"/>
</svg>
